HIERARCHY
ROOT Hips
{
	OFFSET 0.000000 0.000000 0.000000
	CHANNELS 6 Xposition Yposition Zposition Xrotation Yrotation Zrotation
	JOINT LeftUpLeg_virtual
	{
		OFFSET 0.000000 0.000000 0.000000
		CHANNELS 3 Xrotation Yrotation Zrotation
		JOINT LeftUpLeg
		{
			OFFSET 11.394100 -6.187798 -0.413800
			CHANNELS 3 Xrotation Yrotation Zrotation
			JOINT LeftLeg
			{
				OFFSET 0.430247 -32.302673 3.732800
				CHANNELS 3 Xrotation Yrotation Zrotation
				JOINT LeftFoot
				{
					OFFSET -0.430247 -48.264931 -6.423300
					CHANNELS 3 Xrotation Yrotation Zrotation
					JOINT LeftToeBase
					{
						OFFSET 4.230900 -16.068199 23.438400
						CHANNELS 3 Xrotation Yrotation Zrotation
						JOINT LeftToe_End
						{
							OFFSET 4.510700 0.695400 19.974600
							CHANNELS 3 Xrotation Yrotation Zrotation
							End Site
							{
								OFFSET 0 0 0
							}
						}
					}
				}
			}
		}
	}
	JOINT RightUpLeg_virtual
	{
		OFFSET 0.000000 0.000000 0.000000
		CHANNELS 3 Xrotation Yrotation Zrotation
		JOINT RightUpLeg
		{
			OFFSET -11.333700 -6.187798 -0.413800
			CHANNELS 3 Xrotation Yrotation Zrotation
			JOINT RightLeg
			{
				OFFSET -0.430392 -32.302628 3.733000
				CHANNELS 3 Xrotation Yrotation Zrotation
				JOINT RightFoot
				{
					OFFSET 0.430392 -48.264973 -6.423500
					CHANNELS 3 Xrotation Yrotation Zrotation
					JOINT RightToeBase
					{
						OFFSET -4.230900 -16.068199 23.438400
						CHANNELS 3 Xrotation Yrotation Zrotation
						JOINT RightToe_End
						{
							OFFSET -4.510700 0.695400 19.974600
							CHANNELS 3 Xrotation Yrotation Zrotation
							End Site
							{
								OFFSET 0 0 0
							}
						}
					}
				}
			}
		}
	}
	JOINT Spine_virtual
	{
		OFFSET 0.000000 0.000000 0.000000
		CHANNELS 3 Xrotation Yrotation Zrotation
		JOINT Spine
		{
			OFFSET -0.002400 12.777504 0.315300
			CHANNELS 3 Xrotation Yrotation Zrotation
			JOINT Spine1
			{
				OFFSET -0.002067 5.816869 0.032633
				CHANNELS 3 Xrotation Yrotation Zrotation
				JOINT Spine1_split
				{
					OFFSET -0.002067 5.816869 0.032633
					CHANNELS 3 Xrotation Yrotation Zrotation
					JOINT Spine2
					{
						OFFSET -0.002067 5.816869 0.032633
						CHANNELS 3 Xrotation Yrotation Zrotation
						JOINT Neck_virtual
						{
							OFFSET 0.000000 0.000000 0.000000
							CHANNELS 3 Xrotation Yrotation Zrotation
							JOINT Neck
							{
								OFFSET -0.003700 21.199493 -0.826900
								CHANNELS 3 Xrotation Yrotation Zrotation
								JOINT Head
								{
									OFFSET 0.000000 20.442200 4.834800
									CHANNELS 3 Xrotation Yrotation Zrotation
									JOINT HeadTop_End
									{
										OFFSET 0.000000 34.668396 4.968400
										CHANNELS 3 Xrotation Yrotation Zrotation
										End Site
										{
											OFFSET 0 0 0
										}
									}
								}
							}
						}
						JOINT LeftShoulder_virtual
						{
							OFFSET 0.000000 0.000000 0.000000
							CHANNELS 3 Xrotation Yrotation Zrotation
							JOINT LeftShoulder
							{
								OFFSET 3.288150 8.794197 -1.372250
								CHANNELS 3 Xrotation Yrotation Zrotation
								JOINT LeftShoulder_split
								{
									OFFSET 3.288150 8.794197 -1.372250
									CHANNELS 3 Xrotation Yrotation Zrotation
									JOINT LeftArm
									{
										OFFSET 11.953299 -2.279007 -0.146200
										CHANNELS 3 Xrotation Yrotation Zrotation
										JOINT LeftForeArm
										{
											OFFSET 18.448900 0.000000 0.000000
											CHANNELS 3 Xrotation Yrotation Zrotation
											JOINT LeftHand
											{
												OFFSET 29.527798 0.000000 0.000000
												CHANNELS 3 Xrotation Yrotation Zrotation
												End Site
												{
													OFFSET 0 0 0
												}
											}
										}
									}
								}
							}
						}
						JOINT RightShoulder_virtual
						{
							OFFSET 0.000000 0.000000 0.000000
							CHANNELS 3 Xrotation Yrotation Zrotation
							JOINT RightShoulder
							{
								OFFSET -3.249400 8.794197 -1.372250
								CHANNELS 3 Xrotation Yrotation Zrotation
								JOINT RightShoulder_split
								{
									OFFSET -3.249400 8.794197 -1.372250
									CHANNELS 3 Xrotation Yrotation Zrotation
									JOINT RightArm
									{
										OFFSET -11.953299 -2.279007 -0.146200
										CHANNELS 3 Xrotation Yrotation Zrotation
										JOINT RightForeArm
										{
											OFFSET -18.448900 0.000000 0.000000
											CHANNELS 3 Xrotation Yrotation Zrotation
											JOINT RightHand
											{
												OFFSET -29.527802 0.000000 0.000000
												CHANNELS 3 Xrotation Yrotation Zrotation
												End Site
												{
													OFFSET 0 0 0
												}
											}
										}
									}
								}
							}
						}
					}
				}
			}
		}
	}
}
MOTION
Frames: 9
Frame Time: 0.03333333
-31.792303 52.817181 282.312164 0.000000 0.000000 0.000000 -172.495867 14.450327 -179.649808 -106.998916 -10.446416 30.549107 97.618307 -1.038969 -3.952157 22.515032 -6.834266 13.109647 -7.579458 1.060594 -0.041059 0.000000 0.000000 0.000000 -172.629097 12.844476 179.601300 -109.327785 12.449813 -18.133917 104.260707 -1.297809 2.649135 8.489579 0.693936 -14.303972 3.321751 2.062973 1.491341 0.000000 0.000000 0.000000 -172.647279 15.322799 -178.675099 18.310101 -4.103436 -7.774304 4.102362 -0.249171 -2.629530 0.897664 -0.536300 0.449643 0.000000 0.000000 0.000000 4.618843 -0.810469 -1.798485 -1.715023 -0.194685 -1.048518 -20.089629 -0.058883 7.576750 0.000000 0.000000 0.000000 3.815411 -0.510273 -2.424478 1.035448 -2.788326 -11.335479 -3.643354 0.382638 1.673716 -15.083643 -40.291559 -44.349996 0.446975 -58.697013 0.943138 0.000000 0.000000 0.000000 4.982235 -0.614937 -1.853379 -2.665726 19.546116 -1.163741 -1.465700 1.067708 0.606373 -25.374848 26.157184 30.242701 -179.731251 68.738252 179.580317 0.000000 0.000000 0.000000 
-31.774445 52.817657 282.288391 0.000000 0.000000 0.000000 -172.536029 14.502250 -179.691267 -107.029174 -10.505016 30.494018 97.694456 -1.040258 -3.964057 22.521692 -6.795747 13.129691 -7.588507 1.063254 -0.084457 0.000000 0.000000 0.000000 -172.675337 12.867312 179.567135 -109.399946 12.373089 -18.191954 104.241480 -1.301230 2.682943 8.526444 0.654819 -14.316260 3.354924 2.048987 1.491610 0.000000 0.000000 0.000000 -172.693151 15.360578 -178.683937 18.232674 -4.049512 -7.808674 4.073750 -0.235402 -2.634199 0.897259 -0.543699 0.454254 0.000000 0.000000 0.000000 4.590180 -0.780787 -1.828489 -1.694818 -0.328420 -0.982255 -20.844177 -0.212702 7.662477 0.000000 0.000000 0.000000 3.833190 -0.499970 -2.435827 1.017773 -2.786339 -11.340155 -3.838567 0.483586 1.601406 -15.039402 -40.410609 -44.293384 0.516866 -58.561502 1.012897 0.000000 0.000000 0.000000 4.970464 -0.591161 -1.876578 -2.979842 18.713142 -2.064501 -1.388715 1.027755 0.618509 -27.037468 26.414708 30.757643 -179.994705 67.872894 179.970867 0.000000 0.000000 0.000000 
-31.761078 52.820663 282.274933 0.000000 0.000000 0.000000 -172.575972 14.572466 -179.746605 -107.064294 -10.559805 30.429555 97.752397 -1.035087 -3.956962 22.544957 -6.754352 13.140678 -7.600119 1.064642 -0.127080 0.000000 0.000000 0.000000 -172.719379 12.912525 179.518190 -109.467107 12.288246 -18.257654 104.229438 -1.300977 2.714358 8.587168 0.608524 -14.318681 3.375105 2.035165 1.486214 0.000000 0.000000 0.000000 -172.736550 15.422055 -178.715028 18.152416 -4.007976 -7.824794 4.052382 -0.232300 -2.630525 0.896695 -0.561401 0.458761 0.000000 0.000000 0.000000 4.569767 -0.758593 -1.849837 -1.686888 -0.454004 -0.925707 -21.552025 -0.389908 7.740480 0.000000 0.000000 0.000000 3.871462 -0.504159 -2.434813 0.997011 -2.809037 -11.392762 -4.025047 0.545603 1.559085 -14.931038 -40.516225 -44.232718 0.568083 -58.480940 1.042090 0.000000 0.000000 0.000000 4.964640 -0.579914 -1.888430 -3.251192 18.006573 -2.767190 -1.274770 0.973497 0.588874 -28.535381 26.698923 31.080991 179.863811 67.301269 -179.762151 0.000000 0.000000 0.000000 
-31.755875 52.829056 282.269196 0.000000 0.000000 0.000000 -172.617131 14.664261 -179.809812 -107.102393 -10.603124 30.356561 97.782825 -1.026308 -3.933561 22.586008 -6.716461 13.137947 -7.622245 1.062545 -0.160859 0.000000 0.000000 0.000000 -172.761343 12.986234 179.457975 -109.521933 12.201131 -18.327954 104.215511 -1.301902 2.744888 8.647518 0.555260 -14.326687 3.407452 2.022244 1.481728 0.000000 0.000000 0.000000 -172.776233 15.505487 -178.769669 18.068352 -3.977354 -7.823663 4.039304 -0.238471 -2.618508 0.918091 -0.579150 0.453331 0.000000 0.000000 0.000000 4.557741 -0.744688 -1.860056 -1.684556 -0.571430 -0.883147 -22.217135 -0.585429 7.803891 0.000000 0.000000 0.000000 3.920179 -0.518101 -2.421595 0.974306 -2.855676 -11.475730 -4.227847 0.569144 1.557222 -14.768696 -40.600007 -44.155045 0.572105 -58.431456 1.014154 0.000000 0.000000 0.000000 4.960419 -0.579690 -1.888349 -3.482235 17.401669 -3.314174 -1.141168 0.883725 0.536888 -29.896411 27.018439 31.253709 179.812380 66.861091 -179.600261 0.000000 0.000000 0.000000 
-31.758394 52.839851 282.271301 0.000000 0.000000 0.000000 -172.657374 14.776090 -179.877403 -107.138566 -10.633293 30.273564 97.788686 -1.017504 -3.896328 22.640682 -6.682775 13.123998 -7.653191 1.056438 -0.185589 0.000000 0.000000 0.000000 -172.801682 13.087111 179.395246 -109.564301 12.121841 -18.397924 104.199433 -1.305636 2.774791 8.698486 0.499168 -14.348604 3.455645 2.010965 1.482157 0.000000 0.000000 0.000000 -172.812214 15.604293 -178.839419 17.980003 -3.955254 -7.810658 4.033100 -0.250076 -2.601327 0.958662 -0.605270 0.443700 0.000000 0.000000 0.000000 4.550150 -0.738375 -1.861802 -1.682100 -0.681273 -0.856138 -22.840390 -0.787404 7.847768 0.000000 0.000000 0.000000 3.971120 -0.537353 -2.401195 0.952152 -2.917644 -11.567520 -4.435571 0.570885 1.583987 -14.575847 -40.651104 -44.058811 0.512212 -58.377497 0.929902 0.000000 0.000000 0.000000 4.954080 -0.587716 -1.879682 -3.686581 16.860144 -3.767574 -1.040441 0.754148 0.467402 -31.161813 27.361412 31.356285 179.820754 66.431062 -179.529473 0.000000 0.000000 0.000000 
-31.768911 52.851181 282.276794 0.000000 0.000000 0.000000 -172.695773 14.902339 -179.942099 -107.169343 -10.651774 30.181059 97.774288 -1.009981 -3.851679 22.697414 -6.651573 13.101976 -7.680564 1.046489 -0.206580 0.000000 0.000000 0.000000 -172.840123 13.203586 179.334717 -109.600870 12.059434 -18.465217 104.182344 -1.309340 2.801361 8.748630 0.445930 -14.374563 3.504949 2.001121 1.485126 0.000000 0.000000 0.000000 -172.842800 15.713673 -178.918923 17.889843 -3.939113 -7.793236 4.030358 -0.263344 -2.583042 0.999238 -0.617541 0.432389 0.000000 0.000000 0.000000 4.539894 -0.736829 -1.857815 -1.673536 -0.785883 -0.843932 -23.420850 -0.985654 7.873788 0.000000 0.000000 0.000000 4.012690 -0.557962 -2.379897 0.931208 -2.985181 -11.659098 -4.636480 0.560907 1.632236 -14.366220 -40.657340 -43.934195 0.391289 -58.277810 0.800679 0.000000 0.000000 0.000000 4.942124 -0.599304 -1.867503 -3.878266 16.354208 -4.180341 -0.947186 0.635787 0.368715 -32.389539 27.665545 31.478450 179.864221 65.982571 -179.534241 0.000000 0.000000 0.000000 
-31.784279 52.862061 282.283722 0.000000 0.000000 0.000000 -172.731782 15.032698 -179.997929 -107.189710 -10.664286 30.079115 97.747746 -1.003438 -3.808236 22.742073 -6.618561 13.077913 -7.695223 1.033223 -0.230636 0.000000 0.000000 0.000000 -172.876746 13.326242 179.280226 -109.636769 12.017297 -18.523826 104.165391 -1.306388 2.817477 8.800428 0.408620 -14.383497 3.536995 1.991295 1.485018 0.000000 0.000000 0.000000 -172.868645 15.828291 -178.995161 17.799992 -3.927246 -7.778600 4.027567 -0.276020 -2.565120 1.037861 -0.633457 0.434833 0.000000 0.000000 0.000000 4.521706 -0.739018 -1.852987 -1.662512 -0.888706 -0.842764 -23.969637 -1.171282 7.877722 0.000000 0.000000 0.000000 4.040185 -0.576351 -2.363950 0.911370 -3.048321 -11.743560 -4.808069 0.547884 1.677163 -14.171140 -40.628574 -43.804267 0.229594 -58.126904 0.652468 0.000000 0.000000 0.000000 4.924024 -0.610180 -1.855689 -4.075453 15.866739 -4.590256 -0.855414 0.535265 0.277635 -33.580625 27.898575 31.677628 179.903276 65.558218 -179.578173 0.000000 0.000000 0.000000 
-31.802227 52.870712 282.285248 0.000000 0.000000 0.000000 -172.765469 15.157110 179.960212 -107.199184 -10.676794 29.970477 97.712563 -1.000331 -3.771099 22.767138 -6.583490 13.053788 -7.698346 1.017797 -0.258905 0.000000 0.000000 0.000000 -172.911963 13.443337 179.236007 -109.671603 11.993748 -18.572386 104.153227 -1.294682 2.820758 8.849492 0.395221 -14.370597 3.549050 1.981469 1.479640 0.000000 0.000000 0.000000 -172.890707 15.941615 -179.057248 17.713527 -3.919910 -7.772582 4.022161 -0.286911 -2.549644 1.057666 -0.647017 0.458067 0.000000 0.000000 0.000000 4.495596 -0.743353 -1.849771 -1.650199 -0.988456 -0.851283 -24.492876 -1.333034 7.855506 0.000000 0.000000 0.000000 4.048727 -0.592609 -2.355280 0.890812 -3.098705 -11.823932 -4.935282 0.512268 1.705139 -13.989420 -40.584509 -43.673012 0.071933 -57.963226 0.521721 0.000000 0.000000 0.000000 4.898386 -0.618895 -1.846168 -4.290811 15.387289 -5.006749 -0.745393 0.469871 0.194757 -34.706732 28.043329 31.984512 179.929449 65.224543 -179.645573 0.000000 0.000000 0.000000 
-31.818089 52.878761 282.279266 0.000000 0.000000 0.000000 -172.798021 15.270409 179.933711 -107.201055 -10.696659 29.862400 97.670681 -1.005654 -3.745239 22.778712 -6.552056 13.026421 -7.702441 1.000641 -0.286904 0.000000 0.000000 0.000000 -172.945499 13.548995 179.200545 -109.703131 11.979167 -18.612966 104.150228 -1.278216 2.816816 8.885427 0.402509 -14.347108 3.564660 1.972187 1.471651 0.000000 0.000000 0.000000 -172.910364 16.050320 -179.101466 17.630762 -3.917910 -7.778393 4.016444 -0.295398 -2.536997 1.071292 -0.652086 0.473447 0.000000 0.000000 0.000000 4.465612 -0.748845 -1.849104 -1.642855 -1.084280 -0.871015 -24.999174 -1.458548 7.800668 0.000000 0.000000 0.000000 4.039838 -0.605155 -2.352544 0.868577 -3.133303 -11.905491 -5.032112 0.457530 1.715184 -13.820961 -40.542452 -43.542415 -0.048831 -57.815769 0.432241 0.000000 0.000000 0.000000 4.866454 -0.625235 -1.839334 -4.534823 14.911538 -5.427622 -0.618065 0.428628 0.146934 -35.718659 28.112577 32.383645 179.937044 65.028004 -179.712768 0.000000 0.000000 0.000000 
